<svg width="27" height="27" viewBox="0 0 27 27" fill="none" xmlns="http://www.w3.org/2000/svg">
<path d="M22.8592 2.7877H3.90283L5.57545 21.744L13.381 23.9742L21.1866 21.744L22.8592 2.7877Z" fill="#6381E2"/>
<path d="M13.3809 4.46032V22.2458L19.6253 20.4617L21.0192 4.46032H13.3809Z" fill="#9CA9ED"/>
<path d="M18.4545 7.24802H13.3809V9.47817H16.1128L15.9455 11.7083H13.3809V13.9385H15.834L15.6668 16.4474L13.3809 17.228V19.5696L17.7854 18.12L18.1757 11.7083L18.4545 7.24802Z" fill="white"/>
<path d="M13.3808 7.24802V9.47817H8.41873L8.25146 7.24802H13.3808ZM10.8161 11.7083L10.9277 13.9385H13.3808V11.7083H10.8161ZM11.0392 15.0536H8.809L8.97627 18.12L13.3808 19.5696V17.228L11.0949 16.4474L11.0392 15.0536Z" fill="#EEEEEE"/>
</svg>
