<svg width="19" height="22" viewBox="0 0 19 22" fill="none" xmlns="http://www.w3.org/2000/svg">
<path d="M18.9563 0H0L1.67262 18.9563L9.47817 21.1865L17.2837 18.9563L18.9563 0Z" fill="#2B3049"/>
<path d="M9.47803 1.67262V19.4581L15.7225 17.674L17.1163 1.67262H9.47803Z" fill="#778EE6"/>
<path d="M9.47803 11.1508V8.92064H14.2729L13.8826 15.3323L9.47803 16.7819V14.4403L11.7639 13.6597L11.9312 11.1508H9.47803ZM14.4401 6.69048L14.6074 4.46032H9.47803V6.69048H14.4401Z" fill="white"/>
<path d="M9.47815 14.4403V16.7819L5.07359 15.3323L4.85057 12.2659H7.08073L7.19224 13.6597L9.47815 14.4403ZM6.74621 6.69048H9.47815V4.46032H4.40454L4.79482 11.1508H9.47815V8.92064H6.91347L6.74621 6.69048Z" fill="#EEEEEE"/>
</svg>
