<svg width="27" height="27" viewBox="0 0 27 27" fill="none" xmlns="http://www.w3.org/2000/svg">
<g clip-path="url(#clip0_22_66)">
<path d="M4.73909 0H22.0228C24.6433 0 26.7619 2.17298 26.7619 4.8606V21.9013C26.7619 24.5889 24.6433 26.7619 22.0228 26.7619H4.73909C2.11865 26.7619 0 24.5889 0 21.9013V4.8606C0 2.17298 2.11865 0 4.73909 0Z" fill="#2B3049"/>
<path d="M12.935 16.0114H8.78689L7.93943 18.699C7.91712 18.802 7.82792 18.8706 7.72756 18.8591H5.63121C5.50855 18.8591 5.4751 18.7905 5.50855 18.6533L9.09911 8.05145C9.13256 7.93708 9.16601 7.81127 9.21062 7.67403C9.25522 7.43386 9.27752 7.18225 9.27752 6.93065C9.26637 6.87346 9.31097 6.81628 9.36673 6.80484H12.2548C12.344 6.80484 12.3886 6.83915 12.3997 6.89634L16.4698 18.6761C16.5032 18.802 16.4698 18.8591 16.3583 18.8591H14.0278C13.9497 18.8706 13.8716 18.8134 13.8493 18.7333L12.935 16.0114ZM9.43363 13.6897H12.2659C12.199 13.4496 12.1098 13.1637 12.0095 12.8663C11.9091 12.5575 11.8088 12.2258 11.7084 11.8827C11.5969 11.5282 11.4965 11.1851 11.385 10.8306C11.2735 10.476 11.1732 10.1444 11.084 9.8127C10.9947 9.49247 10.9167 9.19512 10.8386 8.92063H10.8163C10.716 9.41241 10.5933 9.90419 10.4372 10.396C10.2699 10.9449 10.1027 11.5168 9.92427 12.0886C9.76816 12.6719 9.60089 13.2094 9.43363 13.6897ZM18.9564 8.80627C18.5884 8.8177 18.2316 8.66903 17.964 8.40598C17.7075 8.12007 17.5737 7.74265 17.5849 7.35381C17.5737 6.96496 17.7187 6.59898 17.9863 6.33594C18.2539 6.07289 18.6107 5.93565 18.9787 5.93565C19.4136 5.93565 19.7481 6.07289 19.9934 6.33594C20.2388 6.61042 20.3726 6.97639 20.3614 7.35381C20.3726 7.74265 20.2388 8.12007 19.9711 8.40598C19.7147 8.68046 19.3355 8.82914 18.9564 8.80627ZM17.7075 18.7333V9.92707C17.7075 9.8127 17.7521 9.76695 17.8525 9.76695H20.0603C20.1607 9.76695 20.2053 9.82414 20.2053 9.92707V18.7333C20.2053 18.8591 20.1607 18.9163 20.0603 18.9163H17.8748C17.7633 18.9163 17.7075 18.8477 17.7075 18.7333Z" fill="#ADB7F0"/>
</g>
<defs>
<clipPath id="clip0_22_66">
<rect width="26.7619" height="26.7619" fill="white"/>
</clipPath>
</defs>
</svg>
