<svg width="21" height="21" viewBox="0 0 21 21" fill="none" xmlns="http://www.w3.org/2000/svg">
<path d="M0 20.0714V0H20.0714V20.0714H0Z" fill="#8A9BE9"/>
<path d="M13.1235 15.024C13.5093 15.6507 13.9286 16.2512 14.8167 16.2512C15.5627 16.2512 15.9541 15.8804 15.9541 15.3675C15.9541 14.7536 15.5493 14.5356 14.7286 14.1782L14.2787 13.9864C12.9802 13.4356 12.1165 12.7454 12.1165 11.2874C12.1165 9.94372 13.1452 8.92119 14.7526 8.92119C15.8972 8.92119 16.7196 9.3176 17.3128 10.3557L15.9112 11.2517C15.6028 10.7009 15.2694 10.484 14.7526 10.484C14.2252 10.484 13.8912 10.8168 13.8912 11.2517C13.8912 11.7892 14.2257 12.0066 14.9979 12.3395L15.4478 12.5313C16.9783 13.183 17.8414 13.8487 17.8414 15.3452C17.8414 16.9576 16.5679 17.8413 14.8585 17.8413C13.1865 17.8413 12.237 17.0022 11.7084 15.9635L13.1235 15.024ZM6.66381 15.0697C6.94592 15.5749 7.37467 15.9635 7.99131 15.9635C8.58119 15.9635 8.92073 15.7304 8.92073 14.8244V8.92063H10.779V15.1099C10.779 16.9871 9.69013 17.8413 8.10003 17.8413C6.66325 17.8413 5.62623 16.8678 5.20361 15.9635L6.66381 15.0697Z" fill="#000001"/>
</svg>
