<svg width="27" height="27" viewBox="0 0 27 27" fill="none" xmlns="http://www.w3.org/2000/svg">
<g clip-path="url(#clip0_22_59)">
<path d="M4.73909 0H22.0228C24.6433 0 26.7619 2.17298 26.7619 4.8606V21.9013C26.7619 24.5889 24.6433 26.7619 22.0228 26.7619H4.73909C2.11865 26.7619 0 24.5889 0 21.9013V4.8606C0 2.17298 2.11865 0 4.73909 0Z" fill="#2B3049"/>
<path d="M6.02148 18.7676V6.99926C6.02148 6.91921 6.05494 6.87346 6.13299 6.87346C6.32256 6.87346 6.50097 6.87346 6.75744 6.86202C7.02506 6.85059 7.30383 6.85059 7.6049 6.83915C7.90597 6.82771 8.22934 6.82771 8.57502 6.81628C8.92069 6.80484 9.25521 6.80484 9.58974 6.80484C10.5041 6.80484 11.2624 6.91921 11.8868 7.15938C12.4443 7.3538 12.9573 7.67403 13.381 8.09719C13.7378 8.46316 14.0166 8.90919 14.195 9.40097C14.3623 9.88131 14.4515 10.3731 14.4515 10.8877C14.4515 11.8713 14.2285 12.6833 13.7824 13.3238C13.3364 13.9642 12.712 14.4446 11.9872 14.719C11.2289 15.005 10.3926 15.1079 9.47823 15.1079C9.21061 15.1079 9.0322 15.1079 8.92069 15.0965C8.80918 15.085 8.65307 15.085 8.44121 15.085V18.7562C8.45236 18.8363 8.3966 18.9049 8.31855 18.9163C8.3074 18.9163 8.29625 18.9163 8.27394 18.9163H6.15529C6.06609 18.9163 6.02148 18.8706 6.02148 18.7676ZM8.45236 9.08075V12.9235C8.60847 12.9349 8.75343 12.9464 8.88724 12.9464H9.47823C9.91311 12.9464 10.348 12.8777 10.7606 12.7405C11.1174 12.6376 11.4296 12.4203 11.6749 12.1343C11.9091 11.8484 12.0206 11.4596 12.0206 10.9564C12.0318 10.6018 11.9426 10.2473 11.7641 9.9385C11.5746 9.64114 11.307 9.41241 10.9836 9.28661C10.571 9.11506 10.125 9.04643 9.66779 9.05787C9.37787 9.05787 9.1214 9.05787 8.90954 9.06931C8.68652 9.05787 8.53041 9.06931 8.45236 9.08075Z" fill="#ADB7F0"/>
<path d="M21.4097 12.2258C21.0752 12.0429 20.7183 11.917 20.3392 11.837C19.9266 11.7455 19.5141 11.6883 19.0903 11.6883C18.8673 11.6769 18.6331 11.7112 18.4213 11.7684C18.2763 11.8027 18.1537 11.8827 18.0756 11.9971C18.0199 12.0886 17.9864 12.203 17.9864 12.3059C17.9864 12.4088 18.031 12.5118 18.0979 12.6033C18.1983 12.7291 18.3321 12.832 18.477 12.912C18.7335 13.0493 19.0011 13.1751 19.2687 13.2895C19.8709 13.4953 20.4507 13.7812 20.986 14.1243C21.3539 14.3645 21.655 14.6847 21.8669 15.0736C22.0453 15.4396 22.1345 15.8398 22.1233 16.2516C22.1345 16.7891 21.9784 17.3266 21.6885 17.7726C21.3762 18.2301 20.9414 18.5847 20.4396 18.7905C19.8932 19.0307 19.2241 19.1565 18.4213 19.1565C17.9083 19.1565 17.4066 19.1107 16.9048 19.0078C16.5145 18.9392 16.1242 18.8134 15.7674 18.6418C15.6893 18.5961 15.6336 18.516 15.6447 18.4245V16.4345C15.6447 16.4002 15.6559 16.3545 15.6893 16.3316C15.7228 16.3087 15.7562 16.3202 15.7897 16.3431C16.2246 16.6061 16.6818 16.7891 17.1724 16.9035C17.5961 17.0178 18.0422 17.075 18.4882 17.075C18.9119 17.075 19.213 17.0178 19.4137 16.9149C19.5921 16.8348 19.7148 16.6404 19.7148 16.4345C19.7148 16.2744 19.6256 16.1258 19.4472 15.9771C19.2687 15.8284 18.9008 15.6569 18.3544 15.4396C17.7857 15.2337 17.2616 14.9592 16.771 14.6161C16.4253 14.3645 16.1354 14.0328 15.9235 13.644C15.7451 13.278 15.6559 12.8777 15.667 12.4774C15.667 11.9857 15.8008 11.5168 16.0462 11.0936C16.3249 10.6361 16.7375 10.2702 17.217 10.0414C17.7411 9.76695 18.399 9.64114 19.1907 9.64114C19.6479 9.64114 20.1162 9.67545 20.5734 9.74407C20.9079 9.78982 21.2313 9.88131 21.5324 10.0071C21.577 10.0186 21.6216 10.0643 21.6439 10.11C21.655 10.1558 21.6662 10.2015 21.6662 10.2473V12.1115C21.6662 12.1572 21.6439 12.203 21.6104 12.2258C21.51 12.2487 21.4543 12.2487 21.4097 12.2258Z" fill="#ADB7F0"/>
</g>
<defs>
<clipPath id="clip0_22_59">
<rect width="26.7619" height="26.7619" fill="white"/>
</clipPath>
</defs>
</svg>
