<svg width="26" height="23" viewBox="0 0 26 23" fill="none" xmlns="http://www.w3.org/2000/svg">
<path d="M12.8234 17.0322C5.63115 17.0322 0 14.579 0 11.4568C0 8.33461 5.63115 5.88143 12.8234 5.88143C20.0157 5.88143 25.6468 8.33461 25.6468 11.4568C25.6468 14.579 20.0157 17.0322 12.8234 17.0322ZM12.8234 6.99651C5.79841 6.99651 1.11508 9.28242 1.11508 11.4568C1.11508 13.6312 5.79841 15.9171 12.8234 15.9171C19.8484 15.9171 24.5317 13.6312 24.5317 11.4568C24.5317 9.28242 19.8484 6.99651 12.8234 6.99651Z" fill="#343951"/>
<path d="M7.86112 22.9421C7.30358 22.9421 6.85755 22.8306 6.41152 22.5519C3.67958 20.9907 4.40438 14.9136 7.97263 8.66912C9.64525 5.76992 11.7081 3.31674 13.7153 1.75563C15.8897 0.0830138 17.8411 -0.418772 19.1792 0.361784C20.573 1.14234 21.0748 3.09373 20.7403 5.82567C20.4058 8.39035 19.2907 11.4011 17.6181 14.3003C15.9454 17.1995 13.8826 19.6527 11.8754 21.2138C10.4258 22.3288 9.03196 22.9421 7.86112 22.9421ZM17.7853 1.08659C16.8933 1.08659 15.7224 1.58837 14.4401 2.59194C12.5445 4.0973 10.5931 6.43897 8.9762 9.22666C5.4637 15.3038 5.12918 20.5447 6.96906 21.604C7.91688 22.1616 9.47799 21.6598 11.2064 20.3217C13.102 18.8163 15.0534 16.4747 16.6702 13.687C18.2871 10.8993 19.3464 8.05583 19.681 5.65841C19.9597 3.42825 19.6252 1.86714 18.6774 1.3096C18.3986 1.19809 18.1199 1.08659 17.7853 1.08659Z" fill="#343951"/>
<path d="M17.8412 22.9421C15.0535 22.9421 11.0392 19.5411 8.02847 14.2445C4.40446 8.00008 3.67966 1.9229 6.4116 0.361787C9.14355 -1.19932 14.0499 2.42468 17.6739 8.66913C19.3465 11.5683 20.4616 14.579 20.7961 17.1437C21.1864 19.8757 20.6289 21.7713 19.235 22.6076C18.789 22.8306 18.3429 22.9421 17.8412 22.9421ZM6.96914 1.3096C5.12926 2.36893 5.46379 7.6098 8.97628 13.687C12.4888 19.7642 16.8376 22.6634 18.6775 21.604C19.6253 21.0465 19.9598 19.4854 19.681 17.2552C19.3465 14.8578 18.2872 12.0144 16.6703 9.22667C13.1578 3.14948 8.80902 0.250279 6.96914 1.3096Z" fill="#343951"/>
<path d="M12.8234 13.687C14.0551 13.687 15.0536 12.6885 15.0536 11.4568C15.0536 10.2251 14.0551 9.22667 12.8234 9.22667C11.5917 9.22667 10.5933 10.2251 10.5933 11.4568C10.5933 12.6885 11.5917 13.687 12.8234 13.687Z" fill="#343951"/>
</svg>
